M48
; DRILL file KiCad 10.0.4 date 2026-07-08T19:06:38
; FORMAT={-:-/ absolute / metric / decimal}
; #@! TF.CreationDate,2026-07-08T19:06:38+03:00
; #@! TF.GenerationSoftware,Kicad,Pcbnew,10.0.4
; #@! TF.FileFunction,Plated,1,2,PTH
FMAT,2
METRIC
; #@! TA.AperFunction,Plated,PTH,ViaDrill
T1C0.300
; #@! TA.AperFunction,Plated,PTH,ComponentDrill
T2C0.700
; #@! TA.AperFunction,Plated,PTH,ComponentDrill
T3C0.800
; #@! TA.AperFunction,Plated,PTH,ComponentDrill
T4C0.900
; #@! TA.AperFunction,Plated,PTH,ComponentDrill
T5C0.950
; #@! TA.AperFunction,Plated,PTH,ComponentDrill
T6C1.000
; #@! TA.AperFunction,Plated,PTH,ComponentDrill
T7C1.100
; #@! TA.AperFunction,Plated,PTH,ComponentDrill
T8C1.200
%
G90
G05
T1
X90.5Y-84.0
X108.5Y-57.5
X114.5Y-95.5
X120.5Y-59.6
X125.61Y-87.0
X134.08Y-57.42
T2
X110.96Y-62.0
X116.04Y-62.0
X120.5Y-61.92
X120.5Y-67.0
X120.5Y-69.96
X120.5Y-75.04
T3
X125.61Y-71.483
X125.61Y-89.517
X128.15Y-71.483
X128.15Y-89.517
X130.69Y-71.483
X130.69Y-89.517
X133.23Y-71.483
X133.23Y-89.517
X135.77Y-71.483
X135.77Y-89.517
X138.31Y-71.483
X138.31Y-89.517
X140.85Y-71.483
X140.85Y-89.517
X143.39Y-71.483
X143.39Y-89.517
T4
X89.61Y-67.055
X89.61Y-89.915
X92.15Y-67.055
X92.15Y-89.915
X94.69Y-67.055
X94.69Y-89.915
X97.23Y-67.055
X97.23Y-89.915
X99.77Y-67.055
X99.77Y-89.915
X102.31Y-67.055
X102.31Y-89.915
X104.85Y-67.055
X104.85Y-89.915
X107.39Y-67.055
X107.39Y-89.915
T5
X90.0Y-99.5
X92.5Y-99.5
X95.0Y-99.5
X97.5Y-99.5
X116.0Y-52.3
X118.5Y-52.3
X121.0Y-52.3
T6
X106.5Y-99.5
X109.0Y-99.5
X133.25Y-52.3
X135.75Y-52.3
X136.25Y-99.3
X138.75Y-99.3
T7
X127.45Y-60.46
X127.45Y-63.0
X127.45Y-65.54
X137.0Y-57.42
X137.0Y-67.58
T8
X93.0Y-53.5
X98.0Y-53.5
X103.0Y-53.5
M30
