%TF.GenerationSoftware,KiCad,Pcbnew,10.0.4*%
%TF.CreationDate,2026-07-08T19:06:35+03:00*%
%TF.ProjectId,JustBreathe_Electronics,4a757374-4272-4656-9174-68655f456c65,1.0*%
%TF.SameCoordinates,Original*%
%TF.FileFunction,Copper,L1,Top*%
%TF.FilePolarity,Positive*%
%FSLAX46Y46*%
G04 Gerber Fmt 4.6, Leading zero omitted, Abs format (unit mm)*
G04 Created by KiCad (PCBNEW 10.0.4) date 2026-07-08 19:06:35*
%MOMM*%
%LPD*%
G01*
G04 APERTURE LIST*
G04 Aperture macros list*
%AMRoundRect*
0 Rectangle with rounded corners*
0 $1 Rounding radius*
0 $2 $3 $4 $5 $6 $7 $8 $9 X,Y pos of 4 corners*
0 Add a 4 corners polygon primitive as box body*
4,1,4,$2,$3,$4,$5,$6,$7,$8,$9,$2,$3,0*
0 Add four circle primitives for the rounded corners*
1,1,$1+$1,$2,$3*
1,1,$1+$1,$4,$5*
1,1,$1+$1,$6,$7*
1,1,$1+$1,$8,$9*
0 Add four rect primitives between the rounded corners*
20,1,$1+$1,$2,$3,$4,$5,0*
20,1,$1+$1,$4,$5,$6,$7,0*
20,1,$1+$1,$6,$7,$8,$9,0*
20,1,$1+$1,$8,$9,$2,$3,0*%
G04 Aperture macros list end*
%TA.AperFunction,Conductor*%
%ADD10C,0.200000*%
%TD*%
%TA.AperFunction,ComponentPad*%
%ADD11R,1.308000X1.308000*%
%TD*%
%TA.AperFunction,ComponentPad*%
%ADD12C,1.308000*%
%TD*%
%TA.AperFunction,ComponentPad*%
%ADD13C,1.400000*%
%TD*%
%TA.AperFunction,ComponentPad*%
%ADD14RoundRect,0.250000X0.600000X0.725000X-0.600000X0.725000X-0.600000X-0.725000X0.600000X-0.725000X0*%
%TD*%
%TA.AperFunction,ComponentPad*%
%ADD15O,1.700000X1.950000*%
%TD*%
%TA.AperFunction,ComponentPad*%
%ADD16RoundRect,0.250000X0.600000X0.750000X-0.600000X0.750000X-0.600000X-0.750000X0.600000X-0.750000X0*%
%TD*%
%TA.AperFunction,ComponentPad*%
%ADD17O,1.700000X2.000000*%
%TD*%
%TA.AperFunction,ComponentPad*%
%ADD18RoundRect,0.249999X-0.850001X0.850001X-0.850001X-0.850001X0.850001X-0.850001X0.850001X0.850001X0*%
%TD*%
%TA.AperFunction,ComponentPad*%
%ADD19C,2.200000*%
%TD*%
%TA.AperFunction,ComponentPad*%
%ADD20R,2.000000X1.905000*%
%TD*%
%TA.AperFunction,ComponentPad*%
%ADD21O,2.000000X1.905000*%
%TD*%
%TA.AperFunction,ComponentPad*%
%ADD22R,2.000000X2.000000*%
%TD*%
%TA.AperFunction,ComponentPad*%
%ADD23O,1.600000X2.000000*%
%TD*%
%TA.AperFunction,ComponentPad*%
%ADD24R,3.000000X3.000000*%
%TD*%
%TA.AperFunction,ComponentPad*%
%ADD25C,3.000000*%
%TD*%
%TA.AperFunction,ViaPad*%
%ADD26C,0.600000*%
%TD*%
G04 APERTURE END LIST*
%TO.N,/DFPLAYER_RX*%
D10*
X106000000Y-64000000D02*
X107000000Y-63500000D01*
%TD*%
D11*
%TO.P,U1,1,VCC_1*%
%TO.N,/Vcc*%
X125610000Y-89517000D03*
D12*
%TO.P,U1,2,RX_2*%
%TO.N,Net-(U1-RX)*%
X128150000Y-89517000D03*
%TO.P,U1,3,TX_3*%
%TO.N,/DFPLAYER_TX*%
X130690000Y-89517000D03*
%TO.P,U1,4,DAC_R_4*%
%TO.N,unconnected-(U1-DAC_R-Pad4)*%
X133230000Y-89517000D03*
%TO.P,U1,5,DAC_L_5*%
%TO.N,unconnected-(U1-DAC_L-Pad5)*%
X135770000Y-89517000D03*
%TO.P,U1,6,SPK1_6*%
%TO.N,Net-(Speaker1-Pin_2)*%
X138310000Y-89517000D03*
%TO.P,U1,7,GND_7*%
%TO.N,GND*%
X140850000Y-89517000D03*
%TO.P,U1,8,SPK2_8*%
%TO.N,Net-(Speaker1-Pin_1)*%
X143390000Y-89517000D03*
%TO.P,U1,9,IO1_9*%
%TO.N,unconnected-(U1-IO1-Pad9)*%
X143390000Y-71483000D03*
%TO.P,U1,10,GND_10*%
%TO.N,GND*%
X140850000Y-71483000D03*
%TO.P,U1,11,IO2_11*%
%TO.N,unconnected-(U1-IO2-Pad11)*%
X138310000Y-71483000D03*
%TO.P,U1,12,ADKEY1_12*%
%TO.N,unconnected-(U1-ADKEY1-Pad12)*%
X135770000Y-71483000D03*
%TO.P,U1,13,ADKEY2_13*%
%TO.N,unconnected-(U1-ADKEY2-Pad13)*%
X133230000Y-71483000D03*
%TO.P,U1,14,USB+_14*%
%TO.N,unconnected-(U1-USB+-Pad14)*%
X130690000Y-71483000D03*
%TO.P,U1,15,USB-_15*%
%TO.N,unconnected-(U1-USB--Pad15)*%
X128150000Y-71483000D03*
%TO.P,U1,16,BUSY_16*%
%TO.N,unconnected-(U1-BUSY-Pad16)*%
X125610000Y-71483000D03*
%TD*%
D13*
%TO.P,R10k1,1*%
%TO.N,Net-(Q1-G)*%
X120500000Y-67000000D03*
%TO.P,R10k1,2*%
%TO.N,GND*%
X120500000Y-61920000D03*
%TD*%
%TO.P,R1k1,1*%
%TO.N,Net-(U1-RX)*%
X120500000Y-75040000D03*
%TO.P,R1k1,2*%
%TO.N,/DFPLAYER_RX*%
X120500000Y-69960000D03*
%TD*%
D14*
%TO.P,PIR,1,Pin_1_1*%
%TO.N,/Vcc*%
X121000000Y-52300000D03*
D15*
%TO.P,PIR,2,Pin_2_2*%
%TO.N,/PIR_PIN*%
X118500000Y-52300000D03*
%TO.P,PIR,3,Pin_3_3*%
%TO.N,GND*%
X116000000Y-52300000D03*
%TD*%
D16*
%TO.P,SPEAKER,1,Pin_1_1*%
%TO.N,Net-(Speaker1-Pin_1)*%
X138750000Y-99300000D03*
D17*
%TO.P,SPEAKER,2,Pin_2_2*%
%TO.N,Net-(Speaker1-Pin_2)*%
X136250000Y-99300000D03*
%TD*%
D13*
%TO.P,R100,1*%
%TO.N,/MOSFET_PIN*%
X110960000Y-62000000D03*
%TO.P,R100,2*%
%TO.N,Net-(Q1-G)*%
X116040000Y-62000000D03*
%TD*%
D14*
%TO.P,RTC,1,Pin_1_1*%
%TO.N,/RTC_SCL*%
X97500000Y-99500000D03*
D15*
%TO.P,RTC,2,Pin_2_2*%
%TO.N,/RTC_SDA*%
X95000000Y-99500000D03*
%TO.P,RTC,3,Pin_3_3*%
%TO.N,/Vcc*%
X92500000Y-99500000D03*
%TO.P,RTC,4,Pin_4_4*%
%TO.N,GND*%
X90000000Y-99500000D03*
%TD*%
D18*
%TO.P,D1,1,K_1*%
%TO.N,/Vcc*%
X137000000Y-57420000D03*
D19*
%TO.P,D1,2,A_2*%
%TO.N,Net-(D1-A)*%
X137000000Y-67580000D03*
%TD*%
D20*
%TO.P,Q1,1,G_1*%
%TO.N,Net-(Q1-G)*%
X127450000Y-65540000D03*
D21*
%TO.P,Q1,2,D_2*%
%TO.N,GND*%
X127450000Y-63000000D03*
%TO.P,Q1,3,S_3*%
%TO.N,Net-(D1-A)*%
X127450000Y-60460000D03*
%TD*%
D16*
%TO.P,BUTTON,1,Pin_1_1*%
%TO.N,/Vcc*%
X109000000Y-99500000D03*
D17*
%TO.P,BUTTON,2,Pin_2_2*%
%TO.N,/BUTTON_PIN*%
X106500000Y-99500000D03*
%TD*%
D22*
%TO.P,U2,1,~{RST}_1*%
%TO.N,unconnected-(U2-~{RST}-Pad1)*%
X107390000Y-67055000D03*
D23*
%TO.P,U2,2,A0_2*%
%TO.N,/POT_SIGNAL*%
X104850000Y-67055000D03*
%TO.P,U2,3,D0_3*%
%TO.N,unconnected-(U2-D0-Pad3)*%
X102310000Y-67055000D03*
%TO.P,U2,4,SCK/D5_4*%
%TO.N,/PIR_PIN*%
X99770000Y-67055000D03*
%TO.P,U2,5,MISO/D6_5*%
%TO.N,/DFPLAYER_RX*%
X97230000Y-67055000D03*
%TO.P,U2,6,MOSI/D7_6*%
%TO.N,/DFPLAYER_TX*%
X94690000Y-67055000D03*
%TO.P,U2,7,CS/D8_7*%
%TO.N,unconnected-(U2-CS{slash}D8-Pad7)*%
X92150000Y-67055000D03*
%TO.P,U2,8,3V3_8*%
%TO.N,+3V3*%
X89610000Y-67055000D03*
%TO.P,U2,9,5V_9*%
%TO.N,/Vcc*%
X89610000Y-89915000D03*
%TO.P,U2,10,GND_10*%
%TO.N,GND*%
X92150000Y-89915000D03*
%TO.P,U2,11,D4_11*%
%TO.N,/MOSFET_PIN*%
X94690000Y-89915000D03*
%TO.P,U2,12,D3_12*%
%TO.N,/BUTTON_PIN*%
X97230000Y-89915000D03*
%TO.P,U2,13,SDA/D2_13*%
%TO.N,/RTC_SDA*%
X99770000Y-89915000D03*
%TO.P,U2,14,SCL/D1_14*%
%TO.N,/RTC_SCL*%
X102310000Y-89915000D03*
%TO.P,U2,15,RX_15*%
%TO.N,unconnected-(U2-RX-Pad15)*%
X104850000Y-89915000D03*
%TO.P,U2,16,TX_16*%
%TO.N,unconnected-(U2-TX-Pad16)*%
X107390000Y-89915000D03*
%TD*%
D24*
%TO.P,POT,1,1_1*%
%TO.N,GND*%
X103000000Y-53500000D03*
D25*
%TO.P,POT,2,2_2*%
%TO.N,/POT_SIGNAL*%
X98000000Y-53500000D03*
%TO.P,POT,3,3_3*%
%TO.N,+3V3*%
X93000000Y-53500000D03*
%TD*%
D16*
%TO.P,PUMP,1,Pin_1_1*%
%TO.N,/Vcc*%
X135750000Y-52300000D03*
D17*
%TO.P,PUMP,2,Pin_2_2*%
%TO.N,Net-(D1-A)*%
X133250000Y-52300000D03*
%TD*%
D26*
%TO.N,/Vcc*%
X125610000Y-87000000D03*
X134080000Y-57420000D03*
X114500000Y-95500000D03*
%TO.N,GND*%
X120500000Y-59600000D03*
X108500000Y-57500000D03*
X90500000Y-84000000D03*
%TD*%
%TO.N,GND*%
D10*
X90500000Y-84000000D02*
X90500000Y-87500000D01*
X90500000Y-87500000D02*
X92150000Y-89150000D01*
X92150000Y-89150000D02*
X92150000Y-89915000D01*
X90500000Y-84000000D02*
X88000000Y-86500000D01*
X88000000Y-86500000D02*
X88000000Y-93000000D01*
X88000000Y-93000000D02*
X90000000Y-95000000D01*
X90000000Y-95000000D02*
X90000000Y-99500000D01*
%TO.N,/Vcc*%
X135750000Y-56170000D02*
X137000000Y-57420000D01*
X132450000Y-49000000D02*
X135750000Y-52300000D01*
X92500000Y-96500000D02*
X89610000Y-93610000D01*
X92500000Y-99500000D02*
X92500000Y-96500000D01*
X106000000Y-102500000D02*
X109000000Y-99500000D01*
X135750000Y-52300000D02*
X135750000Y-56170000D01*
X122700000Y-52300000D02*
X126000000Y-49000000D01*
X109000000Y-99500000D02*
X110500000Y-99500000D01*
X134080000Y-57420000D02*
X137000000Y-57420000D01*
X110500000Y-99500000D02*
X114500000Y-95500000D01*
X89610000Y-93610000D02*
X89610000Y-89915000D01*
X95500000Y-102500000D02*
X106000000Y-102500000D01*
X134080000Y-57420000D02*
X134000000Y-57500000D01*
X92500000Y-99500000D02*
X95500000Y-102500000D01*
X126000000Y-49000000D02*
X132450000Y-49000000D01*
X121000000Y-52300000D02*
X122700000Y-52300000D01*
%TO.N,Net-(U1-RX)*%
X128150000Y-82690000D02*
X128150000Y-89517000D01*
X120500000Y-75040000D02*
X128150000Y-82690000D01*
%TO.N,/DFPLAYER_TX*%
X94500000Y-73380000D02*
X94690000Y-73190000D01*
X130690000Y-89517000D02*
X126207000Y-94000000D01*
X108490000Y-91146422D02*
X108490000Y-88490000D01*
X94690000Y-73190000D02*
X94690000Y-67055000D01*
X94500000Y-74500000D02*
X94500000Y-73380000D01*
X108490000Y-88490000D02*
X94500000Y-74500000D01*
X126207000Y-94000000D02*
X111343578Y-94000000D01*
X111343578Y-94000000D02*
X108490000Y-91146422D01*
%TO.N,Net-(Speaker1-Pin_2)*%
X136250000Y-91577000D02*
X136250000Y-99300000D01*
X138310000Y-89517000D02*
X136250000Y-91577000D01*
%TO.N,GND*%
X105000000Y-53500000D02*
X108500000Y-57000000D01*
X116000000Y-52300000D02*
X116000000Y-55100000D01*
X116000000Y-55100000D02*
X120500000Y-59600000D01*
X133950000Y-69500000D02*
X127450000Y-63000000D01*
X104200000Y-52300000D02*
X103000000Y-53500000D01*
X139500000Y-69500000D02*
X133950000Y-69500000D01*
X120500000Y-60500000D02*
X120500000Y-59600000D01*
X140850000Y-71483000D02*
X140850000Y-89517000D01*
X122420000Y-61920000D02*
X123500000Y-63000000D01*
X120500000Y-61920000D02*
X122420000Y-61920000D01*
X120500000Y-61920000D02*
X120500000Y-60500000D01*
X140850000Y-70850000D02*
X139500000Y-69500000D01*
X140850000Y-71483000D02*
X140850000Y-70850000D01*
X123500000Y-63000000D02*
X127450000Y-63000000D01*
X108500000Y-57000000D02*
X108500000Y-57500000D01*
X103000000Y-53500000D02*
X105000000Y-53500000D01*
%TO.N,Net-(Speaker1-Pin_1)*%
X143390000Y-89517000D02*
X138750000Y-94157000D01*
X138750000Y-94157000D02*
X138750000Y-99300000D01*
X143500000Y-89627000D02*
X143390000Y-89517000D01*
%TO.N,Net-(Q1-G)*%
X116040000Y-64540000D02*
X118500000Y-67000000D01*
X126460000Y-65540000D02*
X127450000Y-65540000D01*
X120500000Y-67000000D02*
X125000000Y-67000000D01*
X116040000Y-62000000D02*
X116040000Y-64540000D01*
X125000000Y-67000000D02*
X126460000Y-65540000D01*
X118500000Y-67000000D02*
X120500000Y-67000000D01*
%TO.N,/DFPLAYER_RX*%
X98000000Y-69500000D02*
X97230000Y-68730000D01*
X117000000Y-70500000D02*
X116500000Y-70000000D01*
X120500000Y-69960000D02*
X119960000Y-70500000D01*
X105950000Y-67710635D02*
X104160635Y-69500000D01*
X112000000Y-63500000D02*
X107000000Y-63500000D01*
X97230000Y-68730000D02*
X97230000Y-67055000D01*
X105950000Y-64000000D02*
X105950000Y-67710635D01*
X104160635Y-69500000D02*
X98000000Y-69500000D01*
X116500000Y-70000000D02*
X116500000Y-66473578D01*
X114000000Y-65500000D02*
X112000000Y-63500000D01*
X119960000Y-70500000D02*
X117000000Y-70500000D01*
X116500000Y-66473578D02*
X115526422Y-65500000D01*
X115526422Y-65500000D02*
X114000000Y-65500000D01*
%TO.N,/PIR_PIN*%
X116700000Y-50500000D02*
X96500000Y-50500000D01*
X99770000Y-66270000D02*
X99770000Y-67055000D01*
X95500000Y-62000000D02*
X99770000Y-66270000D01*
X95500000Y-51500000D02*
X95500000Y-62000000D01*
X96500000Y-50500000D02*
X95500000Y-51500000D01*
X118500000Y-52300000D02*
X116700000Y-50500000D01*
%TO.N,/RTC_SCL*%
X97500000Y-99500000D02*
X97500000Y-98500000D01*
X97500000Y-98500000D02*
X102310000Y-93690000D01*
X102310000Y-93690000D02*
X102310000Y-89915000D01*
%TO.N,/RTC_SDA*%
X98000000Y-91685000D02*
X99770000Y-89915000D01*
X95000000Y-99500000D02*
X95000000Y-96500000D01*
X95000000Y-96500000D02*
X98000000Y-93500000D01*
X98000000Y-93500000D02*
X98000000Y-91685000D01*
%TO.N,Net-(D1-A)*%
X133420000Y-64000000D02*
X130990000Y-64000000D01*
X127450000Y-55050000D02*
X127450000Y-60460000D01*
X130990000Y-64000000D02*
X127450000Y-60460000D01*
X137000000Y-67580000D02*
X133420000Y-64000000D01*
X130200000Y-52300000D02*
X127450000Y-55050000D01*
X133250000Y-52300000D02*
X130200000Y-52300000D01*
%TO.N,/BUTTON_PIN*%
X99645000Y-87500000D02*
X97230000Y-89915000D01*
X106500000Y-99500000D02*
X106000000Y-99000000D01*
X105000000Y-87500000D02*
X99645000Y-87500000D01*
X106000000Y-88500000D02*
X105000000Y-87500000D01*
X106000000Y-99000000D02*
X106000000Y-88500000D01*
%TO.N,/POT_SIGNAL*%
X98000000Y-56000000D02*
X104850000Y-62850000D01*
X98000000Y-53500000D02*
X98000000Y-56000000D01*
X104850000Y-62850000D02*
X104850000Y-67055000D01*
%TO.N,+3V3*%
X89500000Y-57000000D02*
X89500000Y-66945000D01*
X89500000Y-66945000D02*
X89610000Y-67055000D01*
X93000000Y-53500000D02*
X89500000Y-57000000D01*
%TO.N,/Vcc*%
X125610000Y-87000000D02*
X125500000Y-87000000D01*
X125610000Y-89517000D02*
X125610000Y-87000000D01*
%TD*%
M02*
